<svg xmlns="http://www.w3.org/2000/svg" width="251.14508056640625" height="255.5687255859375" viewBox="-29.023313522338867 -20.777584075927734 251.14508056640625 255.5687255859375"><title>Neo4j Graph Visualization</title><desc>Created using Neo4j (http://www.neo4j.com/)</desc><g class="layer relationships"><g class="relationship" transform="translate(148.30833083884002 205.79114572916657) rotate(234.75153733887788)"><path class="outline" fill="#A5ABB6" stroke="none" d="M 25 0.5 L 29.70230122722021 0.5 L 29.70230122722021 -0.5 L 25 -0.5 Z M 75.2648012272202 0.5 L 79.96710245444042 0.5 L 79.96710245444042 3.5 L 86.96710245444042 0 L 79.96710245444042 -3.5 L 79.96710245444042 -0.5 L 75.2648012272202 -0.5 Z"/><text text-anchor="middle" pointer-events="none" font-size="8px" fill="#000000" x="52.48355122722021" y="3" transform="rotate(180 52.48355122722021 0)" font-family="sans-serif">ACTED_IN</text></g><g class="relationship" transform="translate(193.1217576765651 91.16875299241084) rotate(528.0385138793667)"><path class="outline" fill="#A5ABB6" stroke="none" d="M 25 0.5 L 29.649286100724012 0.5 L 29.649286100724012 -0.5 L 25 -0.5 Z M 75.21178610072401 0.5 L 79.86107220144802 0.5 L 79.86107220144802 3.5 L 86.86107220144802 0 L 79.86107220144802 -3.5 L 79.86107220144802 -0.5 L 75.21178610072401 -0.5 Z"/><text text-anchor="middle" pointer-events="none" font-size="8px" fill="#000000" x="52.43053610072401" y="3" transform="rotate(180 52.43053610072401 0)" font-family="sans-serif">ACTED_IN</text></g><g class="relationship" transform="translate(118.9478504029344 8.222416350256276) rotate(468.37743658105603)"><path class="outline" fill="#A5ABB6" stroke="none" d="M 25 0.5 L 29.6354937931181 0.5 L 29.6354937931181 -0.5 L 25 -0.5 Z M 75.1979937931181 0.5 L 79.8334875862362 0.5 L 79.8334875862362 3.5 L 86.8334875862362 0 L 79.8334875862362 -3.5 L 79.8334875862362 -0.5 L 75.1979937931181 -0.5 Z"/><text text-anchor="middle" pointer-events="none" font-size="8px" fill="#000000" x="52.4167437931181" y="3" transform="rotate(180 52.4167437931181 0)" font-family="sans-serif">ACTED_IN</text></g><g class="relationship" transform="translate(-0.023313750357908697 40.08295104387172) rotate(401.579229743765)"><path class="outline" fill="#A5ABB6" stroke="none" d="M 25 0.5 L 29.67362309759381 0.5 L 29.67362309759381 -0.5 L 25 -0.5 Z M 75.2361230975938 0.5 L 79.90974619518762 0.5 L 79.90974619518762 3.5 L 86.90974619518762 0 L 79.90974619518762 -3.5 L 79.90974619518762 -0.5 L 75.2361230975938 -0.5 Z"/><text text-anchor="middle" pointer-events="none" font-size="8px" fill="#000000" x="52.45487309759381" y="3" font-family="sans-serif">ACTED_IN</text></g><g class="relationship" transform="translate(2.177510185296191 187.50743446149414) rotate(318.09280561928483)"><path class="outline" fill="#A5ABB6" stroke="none" d="M 25 0.5 L 28.481560667894776 0.5 L 28.481560667894776 -0.5 L 25 -0.5 Z M 74.04406066789477 0.5 L 77.52562133578955 0.5 L 77.52562133578955 3.5 L 84.52562133578955 0 L 77.52562133578955 -3.5 L 77.52562133578955 -0.5 L 74.04406066789477 -0.5 Z"/><text text-anchor="middle" pointer-events="none" font-size="8px" fill="#000000" x="51.262810667894776" y="3" font-family="sans-serif">ACTED_IN</text></g></g><g class="layer nodes"><g class="node" transform="translate(148.30833083884002,205.79114572916657)"><circle class="outline" cx="0" cy="0" r="25" fill="#F79767" stroke="#f36924" stroke-width="2px"/><text text-anchor="middle" pointer-events="none" font-family="sans-serif" dy="1.5625" font-size="25" fill="#FFFFFF"/><text text-anchor="middle" pointer-events="none" font-family="sans-serif" dy="1.5625" font-size="25" fill="#FFFFFF"/><text text-anchor="middle" pointer-events="none" x="0" y="0" font-size="10px" fill="#FFFFFF" font-family="sans-serif"> Emil</text><text text-anchor="middle" pointer-events="none" x="0" y="10" font-size="10px" fill="#FFFFFF" font-family="sans-serif"> Eifrem</text></g><g class="node" transform="translate(83.68950964111879,114.35242319292325)"><circle class="outline" cx="0" cy="0" r="25" fill="#57C7E3" stroke="#23b3d7" stroke-width="2px"/><text text-anchor="middle" pointer-events="none" font-family="sans-serif" dy="1.5625" font-size="25" fill="#2A2C34"/><text text-anchor="middle" pointer-events="none" font-family="sans-serif" dy="1.5625" font-size="25" fill="#2A2C34"/><text text-anchor="middle" pointer-events="none" x="0" y="0" font-size="10px" fill="#2A2C34" font-family="sans-serif"> The</text><text text-anchor="middle" pointer-events="none" x="0" y="10" font-size="10px" fill="#2A2C34" font-family="sans-serif"> Matrix</text></g><g class="node" transform="translate(193.1217576765651,91.16875299241084)"><circle class="outline" cx="0" cy="0" r="25" fill="#F79767" stroke="#f36924" stroke-width="2px"/><text text-anchor="middle" pointer-events="none" font-family="sans-serif" dy="1.5625" font-size="25" fill="#FFFFFF"/><text text-anchor="middle" pointer-events="none" font-family="sans-serif" dy="1.5625" font-size="25" fill="#FFFFFF"/><text text-anchor="middle" pointer-events="none" x="0" y="0" font-size="10px" fill="#FFFFFF" font-family="sans-serif"> Hugo</text><text text-anchor="middle" pointer-events="none" x="0" y="10" font-size="10px" fill="#FFFFFF" font-family="sans-serif"> Weaving</text></g><g class="node" transform="translate(118.9478504029344,8.222416350256276)"><circle class="outline" cx="0" cy="0" r="25" fill="#F79767" stroke="#f36924" stroke-width="2px"/><text text-anchor="middle" pointer-events="none" font-family="sans-serif" dy="1.5625" font-size="25" fill="#FFFFFF"/><text text-anchor="middle" pointer-events="none" font-family="sans-serif" dy="1.5625" font-size="25" fill="#FFFFFF"/><text text-anchor="middle" pointer-events="none" x="0" y="0" font-size="10px" fill="#FFFFFF" font-family="sans-serif"> Laurence</text><text text-anchor="middle" pointer-events="none" x="0" y="10" font-size="10px" fill="#FFFFFF" font-family="sans-serif"> Fishbur…</text></g><g class="node" transform="translate(-0.023313750357908697,40.08295104387172)"><circle class="outline" cx="0" cy="0" r="25" fill="#F79767" stroke="#f36924" stroke-width="2px"/><text text-anchor="middle" pointer-events="none" font-family="sans-serif" dy="1.5625" font-size="25" fill="#FFFFFF"/><text text-anchor="middle" pointer-events="none" x="0" y="5" font-size="10px" fill="#FFFFFF" font-family="sans-serif"> Carrie-A…</text></g><g class="node" transform="translate(2.177510185296191,187.50743446149414)"><circle class="outline" cx="0" cy="0" r="25" fill="#F79767" stroke="#f36924" stroke-width="2px"/><text text-anchor="middle" pointer-events="none" font-family="sans-serif" dy="1.5625" font-size="25" fill="#FFFFFF"/><text text-anchor="middle" pointer-events="none" font-family="sans-serif" dy="1.5625" font-size="25" fill="#FFFFFF"/><text text-anchor="middle" pointer-events="none" x="0" y="0" font-size="10px" fill="#FFFFFF" font-family="sans-serif"> Keanu</text><text text-anchor="middle" pointer-events="none" x="0" y="10" font-size="10px" fill="#FFFFFF" font-family="sans-serif"> Reeves</text></g></g></svg>